<svg width="300.073" height="56.521" viewBox="0 0 300.073 56.521" xmlns="http://www.w3.org/2000/svg"><g id="svgGroup" stroke-linecap="round" fill-rule="nonzero" font-size="9pt" stroke="#4d4d4d" stroke-width="0mm" fill="#4d4d4d" style="stroke:#4d4d4d;stroke-width:0mm;fill:#4d4d4d"><path d="M 32.113 2.58 L 41.233 2.58 A 0.87 0.87 0 0 1 41.487 2.616 A 0.672 0.672 0 0 1 41.803 2.82 Q 42.013 3.06 41.953 3.48 L 37.033 43.68 A 1.45 1.45 0 0 1 36.961 43.976 Q 36.889 44.172 36.761 44.312 A 0.906 0.906 0 0 1 36.733 44.34 A 0.794 0.794 0 0 1 36.341 44.552 A 1.191 1.191 0 0 1 36.073 44.58 L 26.893 44.58 A 1.169 1.169 0 0 1 26.651 44.557 Q 26.408 44.505 26.263 44.34 Q 26.053 44.1 26.113 43.68 L 28.753 22.02 Q 28.783 21.902 28.762 21.828 A 0.157 0.157 0 0 0 28.663 21.72 Q 28.528 21.666 28.416 21.858 A 0.78 0.78 0 0 0 28.393 21.9 L 23.653 28.44 A 1.573 1.573 0 0 1 23.328 28.788 A 1.202 1.202 0 0 1 22.573 29.04 L 18.133 29.04 A 1.323 1.323 0 0 1 17.766 28.993 A 0.879 0.879 0 0 1 17.173 28.44 L 14.053 21.9 Q 13.933 21.66 13.813 21.72 A 0.235 0.235 0 0 0 13.735 21.787 Q 13.683 21.853 13.648 21.969 A 1.075 1.075 0 0 0 13.633 22.02 L 10.993 43.68 Q 10.933 44.1 10.663 44.34 A 0.937 0.937 0 0 1 10.177 44.565 A 1.292 1.292 0 0 1 9.973 44.58 L 0.793 44.58 A 1.169 1.169 0 0 1 0.551 44.557 Q 0.308 44.505 0.163 44.34 Q -0.047 44.1 0.013 43.68 L 4.993 3.48 A 1.45 1.45 0 0 1 5.066 3.185 Q 5.138 2.989 5.266 2.849 A 0.906 0.906 0 0 1 5.293 2.82 A 0.794 0.794 0 0 1 5.686 2.609 A 1.191 1.191 0 0 1 5.953 2.58 L 15.013 2.58 A 1.323 1.323 0 0 1 15.38 2.628 A 0.879 0.879 0 0 1 15.973 3.18 L 21.793 15.3 Q 21.828 15.406 21.894 15.449 A 0.193 0.193 0 0 0 22.003 15.48 A 0.257 0.257 0 0 0 22.157 15.427 Q 22.218 15.383 22.273 15.3 L 31.033 3.18 Q 31.357 2.641 31.972 2.587 A 1.606 1.606 0 0 1 32.113 2.58 Z M 55.993 43.68 L 60.973 3.48 A 1.45 1.45 0 0 1 61.046 3.185 Q 61.118 2.989 61.246 2.849 A 0.906 0.906 0 0 1 61.273 2.82 A 0.794 0.794 0 0 1 61.666 2.609 A 1.191 1.191 0 0 1 61.933 2.58 L 71.113 2.58 A 1.169 1.169 0 0 1 71.355 2.604 Q 71.599 2.655 71.743 2.82 Q 71.953 3.06 71.893 3.48 L 69.793 20.58 Q 69.764 20.699 69.785 20.773 A 0.157 0.157 0 0 0 69.883 20.88 Q 70.016 20.934 70.172 20.752 A 0.992 0.992 0 0 0 70.213 20.7 L 75.913 13.92 A 1.715 1.715 0 0 1 76.333 13.571 A 1.411 1.411 0 0 1 77.053 13.38 L 87.493 13.38 Q 88.187 13.38 88.212 13.826 A 0.606 0.606 0 0 1 88.213 13.86 A 0.818 0.818 0 0 1 88.135 14.203 Q 88.084 14.315 87.999 14.428 A 1.526 1.526 0 0 1 87.973 14.46 L 79.213 24.84 A 0.306 0.306 0 0 0 79.15 24.939 Q 79.109 25.036 79.098 25.194 A 1.78 1.78 0 0 0 79.093 25.32 L 85.453 43.5 A 0.529 0.529 0 0 1 85.496 43.626 Q 85.513 43.705 85.513 43.8 A 0.87 0.87 0 0 1 85.478 44.054 A 0.672 0.672 0 0 1 85.273 44.37 A 0.842 0.842 0 0 1 84.809 44.572 A 1.124 1.124 0 0 1 84.673 44.58 L 75.073 44.58 A 1.262 1.262 0 0 1 74.702 44.53 Q 74.303 44.407 74.151 43.987 A 1.317 1.317 0 0 1 74.113 43.86 L 70.873 32.4 Q 70.813 32.22 70.633 32.22 A 0.324 0.324 0 0 0 70.395 32.324 A 0.517 0.517 0 0 0 70.333 32.4 L 68.053 35.64 L 67.873 36.06 L 66.973 43.68 Q 66.913 44.1 66.643 44.34 A 0.937 0.937 0 0 1 66.157 44.565 A 1.292 1.292 0 0 1 65.953 44.58 L 56.773 44.58 A 1.169 1.169 0 0 1 56.531 44.557 Q 56.288 44.505 56.143 44.34 Q 55.933 44.1 55.993 43.68 Z M 214.033 55.62 L 214.933 48.18 A 1.694 1.694 0 0 1 214.998 47.896 Q 215.048 47.742 215.126 47.622 A 0.917 0.917 0 0 1 215.203 47.52 A 0.73 0.73 0 0 1 215.402 47.357 A 0.638 0.638 0 0 1 215.713 47.28 Q 218.667 47.28 220.325 46.996 A 8.016 8.016 0 0 0 221.203 46.8 A 3.509 3.509 0 0 0 222.173 46.363 A 2.641 2.641 0 0 0 223.273 44.82 Q 223.273 44.7 223.303 44.58 A 0.329 0.329 0 0 0 223.313 44.5 Q 223.313 44.42 223.273 44.34 L 217.753 14.4 L 217.753 14.16 A 0.96 0.96 0 0 1 217.805 13.831 Q 217.97 13.38 218.653 13.38 L 228.433 13.38 A 1.312 1.312 0 0 1 228.756 13.416 Q 229.273 13.548 229.273 14.16 L 230.413 30 Q 230.443 30.12 230.503 30.18 A 0.204 0.204 0 0 0 230.653 30.24 A 0.208 0.208 0 0 0 230.836 30.141 Q 230.861 30.103 230.879 30.051 A 0.611 0.611 0 0 0 230.893 30 L 235.933 14.16 Q 236.135 13.505 236.761 13.4 A 1.533 1.533 0 0 1 237.013 13.38 L 246.553 13.38 Q 247.241 13.38 247.272 13.872 A 0.757 0.757 0 0 1 247.273 13.92 L 247.153 14.4 L 233.953 44.7 A 50.595 50.595 0 0 1 232.65 47.371 Q 231.225 50.07 229.843 51.72 A 11.123 11.123 0 0 1 226.572 54.354 A 14.708 14.708 0 0 1 224.353 55.32 Q 221.022 56.469 215.272 56.518 A 60.709 60.709 0 0 1 214.753 56.52 L 214.333 56.52 Q 213.939 56.52 214.021 55.727 A 3.59 3.59 0 0 1 214.033 55.62 Z M 139.513 13.38 L 148.693 13.38 A 1.169 1.169 0 0 1 148.935 13.404 Q 149.179 13.455 149.323 13.62 Q 149.533 13.86 149.473 14.28 L 146.233 40.5 A 24.963 24.963 0 0 1 145.17 45.325 Q 143.533 50.201 139.903 52.71 A 20.374 20.374 0 0 1 130.792 56.128 A 26.392 26.392 0 0 1 127.393 56.34 Q 124.213 56.34 121.333 55.8 Q 120.687 55.624 120.731 54.815 A 2.059 2.059 0 0 1 120.733 54.78 L 122.053 46.68 A 1.597 1.597 0 0 1 122.14 46.364 Q 122.401 45.713 123.193 45.96 A 17.732 17.732 0 0 0 126.048 46.528 A 14.892 14.892 0 0 0 127.693 46.62 A 11.159 11.159 0 0 0 129.916 46.41 A 8.074 8.074 0 0 0 132.403 45.48 A 5.493 5.493 0 0 0 134.828 42.521 A 7.368 7.368 0 0 0 135.013 41.94 L 135.013 41.82 A 0.331 0.331 0 0 0 135.001 41.729 A 0.22 0.22 0 0 0 134.863 41.58 Q 134.713 41.52 134.533 41.7 A 8.208 8.208 0 0 1 130.929 43.307 A 11.454 11.454 0 0 1 128.773 43.5 A 16.52 16.52 0 0 1 124.734 43.047 Q 119.455 41.713 118.035 36.461 A 13.176 13.176 0 0 1 117.853 35.7 Q 117.493 33.9 117.493 32.1 A 22.433 22.433 0 0 1 117.539 30.708 Q 117.584 29.997 117.671 29.212 A 38.321 38.321 0 0 1 117.733 28.68 A 28.742 28.742 0 0 1 118.393 25.078 Q 118.863 23.23 119.565 21.683 A 16.657 16.657 0 0 1 119.833 21.12 A 15.661 15.661 0 0 1 123.146 16.576 A 14.675 14.675 0 0 1 124.963 15.12 Q 128.233 12.9 132.133 12.9 A 10.328 10.328 0 0 1 134.325 13.117 Q 135.654 13.406 136.636 14.08 A 5.426 5.426 0 0 1 137.953 15.36 A 0.806 0.806 0 0 0 138.017 15.418 Q 138.113 15.495 138.19 15.495 A 0.141 0.141 0 0 0 138.253 15.48 Q 138.364 15.425 138.373 15.217 A 0.879 0.879 0 0 0 138.373 15.18 L 138.493 14.28 Q 138.553 13.86 138.823 13.62 A 0.937 0.937 0 0 1 139.31 13.396 A 1.292 1.292 0 0 1 139.513 13.38 Z M 135.673 32.76 A 9.686 9.686 0 0 0 136.228 31.296 Q 136.445 30.559 136.596 29.698 A 19.766 19.766 0 0 0 136.753 28.62 Q 136.857 27.478 136.871 26.965 A 5.349 5.349 0 0 0 136.873 26.82 Q 136.873 25.856 136.698 25.138 A 4.228 4.228 0 0 0 136.573 24.72 Q 135.793 22.56 133.513 22.56 A 3.42 3.42 0 0 0 131.055 23.599 A 5.729 5.729 0 0 0 130.213 24.66 A 7.46 7.46 0 0 0 129.261 26.57 Q 128.972 27.422 128.824 28.424 A 13.219 13.219 0 0 0 128.773 28.8 Q 128.663 29.795 128.654 30.281 A 4.437 4.437 0 0 0 128.653 30.36 Q 128.653 31.68 129.013 32.7 Q 129.666 34.457 131.409 34.744 A 4.452 4.452 0 0 0 132.133 34.8 A 4.028 4.028 0 0 0 134.019 34.367 Q 134.811 33.955 135.408 33.152 A 5.505 5.505 0 0 0 135.673 32.76 Z M 194.713 42 L 194.533 43.68 Q 194.473 44.1 194.203 44.34 A 0.937 0.937 0 0 1 193.717 44.565 A 1.292 1.292 0 0 1 193.513 44.58 L 184.333 44.58 A 1.169 1.169 0 0 1 184.091 44.557 Q 183.848 44.505 183.703 44.34 Q 183.493 44.1 183.553 43.68 L 188.533 3.48 A 1.45 1.45 0 0 1 188.606 3.185 Q 188.678 2.989 188.806 2.849 A 0.906 0.906 0 0 1 188.833 2.82 A 0.794 0.794 0 0 1 189.226 2.609 A 1.191 1.191 0 0 1 189.493 2.58 L 198.673 2.58 A 1.169 1.169 0 0 1 198.915 2.604 Q 199.159 2.655 199.303 2.82 Q 199.513 3.06 199.453 3.48 L 198.013 15.42 A 0.801 0.801 0 0 0 198.002 15.473 Q 197.976 15.619 198.029 15.685 A 0.131 0.131 0 0 0 198.073 15.72 Q 198.191 15.779 198.365 15.552 A 1.32 1.32 0 0 0 198.373 15.54 A 7.646 7.646 0 0 1 202.813 13.087 A 11.29 11.29 0 0 1 204.913 12.9 A 12.177 12.177 0 0 1 208.095 13.297 A 9.263 9.263 0 0 1 211.753 15.21 A 11.079 11.079 0 0 1 215.288 20.925 A 13.556 13.556 0 0 1 215.353 21.18 Q 215.893 23.04 215.893 25.68 Q 215.893 27.24 215.713 28.86 Q 215.353 32.4 214.033 35.58 A 17.179 17.179 0 0 1 211.497 39.916 A 14.877 14.877 0 0 1 208.783 42.51 Q 205.333 45.06 201.433 45.06 A 9.675 9.675 0 0 1 199.024 44.78 A 6.074 6.074 0 0 1 195.133 41.88 Q 195.073 41.64 194.923 41.7 Q 194.807 41.747 194.745 41.901 A 0.757 0.757 0 0 0 194.713 42 Z M 202.813 33.42 A 8.204 8.204 0 0 0 203.621 31.755 Q 203.916 30.933 204.105 29.958 A 16.003 16.003 0 0 0 204.253 29.04 Q 204.364 27.936 204.373 27.441 A 4.564 4.564 0 0 0 204.373 27.36 A 8.739 8.739 0 0 0 204.23 25.744 A 7.015 7.015 0 0 0 203.893 24.54 A 3.641 3.641 0 0 0 203.31 23.529 Q 202.588 22.666 201.378 22.572 A 3.922 3.922 0 0 0 201.073 22.56 Q 199.093 22.56 197.833 24.42 A 9.313 9.313 0 0 0 196.581 27.374 Q 196.282 28.606 196.226 30.045 A 17.352 17.352 0 0 0 196.213 30.72 A 10.29 10.29 0 0 0 196.263 31.763 Q 196.358 32.691 196.633 33.36 A 3.71 3.71 0 0 0 197.213 34.392 Q 198.037 35.4 199.513 35.4 A 3.58 3.58 0 0 0 202.313 34.093 A 5.536 5.536 0 0 0 202.813 33.42 Z M 298.693 31.8 L 281.353 31.8 Q 281.036 31.8 280.998 32.034 A 0.421 0.421 0 0 0 280.993 32.1 A 2.86 2.86 0 0 0 281.039 32.626 Q 281.098 32.942 281.234 33.197 A 1.704 1.704 0 0 0 281.293 33.3 A 3.023 3.023 0 0 0 281.995 34.235 Q 282.461 34.664 283.153 35.01 A 6.39 6.39 0 0 0 284.961 35.587 A 8.623 8.623 0 0 0 286.393 35.7 Q 287.953 35.7 289.363 35.19 A 8.827 8.827 0 0 0 290.891 34.474 A 7.321 7.321 0 0 0 291.793 33.84 A 1.1 1.1 0 0 1 292.139 33.65 A 1.004 1.004 0 0 1 292.453 33.6 Q 292.813 33.6 293.053 33.96 L 296.713 39.78 Q 296.893 40.02 296.893 40.32 A 0.879 0.879 0 0 1 296.627 40.954 A 1.248 1.248 0 0 1 296.533 41.04 A 15.055 15.055 0 0 1 291.434 43.943 A 17.298 17.298 0 0 1 291.043 44.07 Q 287.893 45.06 284.473 45.06 A 21.019 21.019 0 0 1 280.648 44.731 Q 278.357 44.307 276.514 43.336 A 12.202 12.202 0 0 1 275.473 42.72 A 11.278 11.278 0 0 1 270.791 36.262 A 14.297 14.297 0 0 1 270.733 36.06 Q 270.193 34.386 270.139 32.176 A 20.355 20.355 0 0 1 270.133 31.68 Q 270.133 30.418 270.212 29.666 A 6.812 6.812 0 0 1 270.253 29.34 A 22.062 22.062 0 0 1 272.024 22.816 A 20.954 20.954 0 0 1 272.113 22.62 A 18.002 18.002 0 0 1 275.487 17.7 A 16.353 16.353 0 0 1 278.173 15.48 A 15.612 15.612 0 0 1 286.917 12.901 A 18.704 18.704 0 0 1 286.993 12.9 A 13.268 13.268 0 0 1 291.116 13.524 A 11.745 11.745 0 0 1 293.803 14.79 Q 296.773 16.68 298.423 19.95 A 15.48 15.48 0 0 1 299.993 25.539 A 18.947 18.947 0 0 1 300.073 27.3 A 12.919 12.919 0 0 1 300.024 28.383 Q 299.976 28.943 299.884 29.588 A 31.537 31.537 0 0 1 299.653 30.96 A 1.272 1.272 0 0 1 299.549 31.327 Q 299.365 31.715 298.907 31.785 A 1.417 1.417 0 0 1 298.693 31.8 Z M 282.133 24.96 L 281.833 25.56 A 0.805 0.805 0 0 0 281.817 25.628 Q 281.748 25.98 282.133 25.98 L 288.673 25.98 A 0.432 0.432 0 0 0 288.792 25.966 Q 288.925 25.927 288.961 25.792 A 0.442 0.442 0 0 0 288.973 25.68 L 288.913 24.96 A 2.987 2.987 0 0 0 288.63 24.061 A 2.496 2.496 0 0 0 287.893 23.19 A 3.036 3.036 0 0 0 286.744 22.669 Q 286.309 22.567 285.802 22.561 A 5.454 5.454 0 0 0 285.733 22.56 A 3.658 3.658 0 0 0 282.771 23.982 A 5.809 5.809 0 0 0 282.133 24.96 Z M 114.193 31.8 L 96.853 31.8 Q 96.536 31.8 96.498 32.034 A 0.421 0.421 0 0 0 96.493 32.1 A 2.86 2.86 0 0 0 96.539 32.626 Q 96.598 32.942 96.734 33.197 A 1.704 1.704 0 0 0 96.793 33.3 A 3.023 3.023 0 0 0 97.495 34.235 Q 97.961 34.664 98.653 35.01 A 6.39 6.39 0 0 0 100.461 35.587 A 8.623 8.623 0 0 0 101.893 35.7 Q 103.453 35.7 104.863 35.19 A 8.827 8.827 0 0 0 106.391 34.474 A 7.321 7.321 0 0 0 107.293 33.84 A 1.1 1.1 0 0 1 107.639 33.65 A 1.004 1.004 0 0 1 107.953 33.6 Q 108.313 33.6 108.553 33.96 L 112.213 39.78 Q 112.393 40.02 112.393 40.32 A 0.879 0.879 0 0 1 112.127 40.954 A 1.248 1.248 0 0 1 112.033 41.04 A 15.055 15.055 0 0 1 106.934 43.943 A 17.298 17.298 0 0 1 106.543 44.07 Q 103.393 45.06 99.973 45.06 A 21.019 21.019 0 0 1 96.148 44.731 Q 93.857 44.307 92.014 43.336 A 12.202 12.202 0 0 1 90.973 42.72 A 11.278 11.278 0 0 1 86.291 36.262 A 14.297 14.297 0 0 1 86.233 36.06 Q 85.693 34.386 85.639 32.176 A 20.355 20.355 0 0 1 85.633 31.68 Q 85.633 30.418 85.712 29.666 A 6.812 6.812 0 0 1 85.753 29.34 A 22.062 22.062 0 0 1 87.524 22.816 A 20.954 20.954 0 0 1 87.613 22.62 A 18.002 18.002 0 0 1 90.987 17.7 A 16.353 16.353 0 0 1 93.673 15.48 A 15.612 15.612 0 0 1 102.417 12.901 A 18.704 18.704 0 0 1 102.493 12.9 A 13.268 13.268 0 0 1 106.616 13.524 A 11.745 11.745 0 0 1 109.303 14.79 Q 112.273 16.68 113.923 19.95 A 15.48 15.48 0 0 1 115.493 25.539 A 18.947 18.947 0 0 1 115.573 27.3 A 12.919 12.919 0 0 1 115.524 28.383 Q 115.476 28.943 115.384 29.588 A 31.537 31.537 0 0 1 115.153 30.96 A 1.272 1.272 0 0 1 115.049 31.327 Q 114.865 31.715 114.407 31.785 A 1.417 1.417 0 0 1 114.193 31.8 Z M 97.633 24.96 L 97.333 25.56 A 0.805 0.805 0 0 0 97.317 25.628 Q 97.248 25.98 97.633 25.98 L 104.173 25.98 A 0.432 0.432 0 0 0 104.292 25.966 Q 104.425 25.927 104.461 25.792 A 0.442 0.442 0 0 0 104.473 25.68 L 104.413 24.96 A 2.987 2.987 0 0 0 104.13 24.061 A 2.496 2.496 0 0 0 103.393 23.19 A 3.036 3.036 0 0 0 102.244 22.669 Q 101.809 22.567 101.302 22.561 A 5.454 5.454 0 0 0 101.233 22.56 A 3.658 3.658 0 0 0 98.271 23.982 A 5.809 5.809 0 0 0 97.633 24.96 Z M 267.853 22.38 L 263.113 22.38 Q 262.813 22.38 262.693 22.74 L 261.553 32.1 Q 261.493 32.4 261.493 32.94 A 3.787 3.787 0 0 0 261.57 33.742 Q 261.866 35.1 263.293 35.1 L 265.453 35.1 A 0.87 0.87 0 0 1 265.707 35.136 A 0.672 0.672 0 0 1 266.023 35.34 Q 266.233 35.58 266.173 36 L 265.273 43.68 A 1.329 1.329 0 0 1 265.146 44.101 Q 264.957 44.47 264.526 44.595 A 1.536 1.536 0 0 1 264.313 44.64 A 61.111 61.111 0 0 1 261.209 44.803 A 51.684 51.684 0 0 1 259.873 44.82 A 27.322 27.322 0 0 1 257.368 44.714 Q 254.854 44.481 253.261 43.743 A 6.649 6.649 0 0 1 252.733 43.47 A 4.372 4.372 0 0 1 250.722 40.881 Q 250.476 40.095 250.414 39.126 A 10.478 10.478 0 0 1 250.393 38.46 Q 250.393 38.019 250.495 36.966 A 56.628 56.628 0 0 1 250.513 36.78 L 252.253 22.74 Q 252.253 22.423 252.02 22.385 A 0.421 0.421 0 0 0 251.953 22.38 L 248.833 22.38 A 1.169 1.169 0 0 1 248.591 22.357 Q 248.348 22.305 248.203 22.14 Q 247.993 21.9 248.053 21.48 L 248.953 14.28 Q 249.013 13.86 249.283 13.62 A 0.937 0.937 0 0 1 249.77 13.396 A 1.292 1.292 0 0 1 249.973 13.38 L 253.033 13.38 A 0.518 0.518 0 0 0 253.176 13.363 Q 253.336 13.317 253.378 13.154 A 0.53 0.53 0 0 0 253.393 13.02 L 254.293 5.88 Q 254.353 5.46 254.623 5.22 Q 254.893 4.98 255.253 4.98 L 264.013 4.98 A 1.169 1.169 0 0 1 264.255 5.004 Q 264.499 5.055 264.643 5.22 Q 264.853 5.46 264.793 5.88 L 263.893 13.02 Q 263.893 13.338 264.127 13.376 A 0.421 0.421 0 0 0 264.193 13.38 L 268.993 13.38 A 0.87 0.87 0 0 1 269.247 13.416 A 0.672 0.672 0 0 1 269.563 13.62 Q 269.773 13.86 269.713 14.28 L 268.873 21.48 Q 268.813 21.9 268.543 22.14 A 0.937 0.937 0 0 1 268.057 22.365 A 1.292 1.292 0 0 1 267.853 22.38 Z M 172.993 13.38 L 182.233 13.38 A 0.87 0.87 0 0 1 182.487 13.416 A 0.672 0.672 0 0 1 182.803 13.62 Q 183.013 13.86 182.953 14.28 L 179.353 43.68 Q 179.293 44.1 179.023 44.34 Q 178.753 44.58 178.393 44.58 L 169.213 44.58 A 1.169 1.169 0 0 1 168.971 44.557 Q 168.728 44.505 168.583 44.34 Q 168.373 44.1 168.433 43.68 L 168.613 42 Q 168.643 41.882 168.622 41.808 A 0.157 0.157 0 0 0 168.523 41.7 Q 168.388 41.646 168.276 41.838 A 0.78 0.78 0 0 0 168.253 41.88 A 8.413 8.413 0 0 1 162.135 45.022 A 11.896 11.896 0 0 1 161.173 45.06 Q 157.273 45.06 154.483 42.51 A 10.988 10.988 0 0 1 151.564 38.05 A 14.974 14.974 0 0 1 150.913 35.58 Q 150.673 34.08 150.673 32.22 A 30.798 30.798 0 0 1 150.811 29.267 A 27.974 27.974 0 0 1 150.853 28.86 A 28.868 28.868 0 0 1 151.779 24.541 A 22.79 22.79 0 0 1 153.073 21.18 Q 154.933 17.52 158.203 15.21 Q 161.473 12.9 165.553 12.9 Q 169.693 12.9 171.493 15.54 Q 171.613 15.78 171.733 15.72 A 0.235 0.235 0 0 0 171.812 15.654 Q 171.864 15.588 171.899 15.472 A 1.075 1.075 0 0 0 171.913 15.42 L 172.033 14.28 Q 172.093 13.86 172.363 13.62 Q 172.633 13.38 172.993 13.38 Z M 168.793 33.36 A 8.405 8.405 0 0 0 169.648 31.575 Q 170.042 30.443 170.233 29.04 Q 170.349 27.885 170.353 27.342 A 5.195 5.195 0 0 0 170.353 27.3 A 9.329 9.329 0 0 0 170.237 25.793 A 7.043 7.043 0 0 0 169.873 24.42 Q 168.993 22.6 167.135 22.561 A 3.896 3.896 0 0 0 167.053 22.56 A 3.539 3.539 0 0 0 164.246 23.855 A 5.159 5.159 0 0 0 163.753 24.54 A 9.546 9.546 0 0 0 162.737 26.88 A 13.012 13.012 0 0 0 162.313 29.04 Q 162.203 30.145 162.194 30.64 A 4.564 4.564 0 0 0 162.193 30.72 A 10.978 10.978 0 0 0 162.241 31.775 Q 162.334 32.743 162.613 33.42 A 4.046 4.046 0 0 0 163.243 34.422 Q 164.101 35.4 165.493 35.4 A 3.524 3.524 0 0 0 168.249 34.105 A 5.627 5.627 0 0 0 168.793 33.36 Z M 41.233 43.68 L 44.893 14.28 A 1.45 1.45 0 0 1 44.966 13.985 Q 45.038 13.789 45.166 13.649 A 0.906 0.906 0 0 1 45.193 13.62 A 0.794 0.794 0 0 1 45.586 13.409 A 1.191 1.191 0 0 1 45.853 13.38 L 55.033 13.38 A 1.169 1.169 0 0 1 55.275 13.404 Q 55.519 13.455 55.663 13.62 Q 55.873 13.86 55.813 14.28 L 52.213 43.68 Q 52.153 44.1 51.883 44.34 A 0.937 0.937 0 0 1 51.397 44.565 A 1.292 1.292 0 0 1 51.193 44.58 L 42.013 44.58 A 1.169 1.169 0 0 1 41.771 44.557 Q 41.528 44.505 41.383 44.34 Q 41.173 44.1 41.233 43.68 Z M 49.152 11.053 A 4.41 4.41 0 0 1 47.263 9.9 A 4.683 4.683 0 0 1 45.948 7.032 A 6.358 6.358 0 0 1 45.913 6.36 A 6.814 6.814 0 0 1 46.289 4.056 A 5.928 5.928 0 0 1 47.743 1.8 A 6.059 6.059 0 0 1 52.133 0.001 A 7.348 7.348 0 0 1 52.153 0 A 5.754 5.754 0 0 1 53.768 0.216 A 4.449 4.449 0 0 1 55.663 1.32 A 4.42 4.42 0 0 1 56.958 3.958 A 6.17 6.17 0 0 1 57.013 4.8 Q 57.013 7.5 55.183 9.39 A 6.14 6.14 0 0 1 52.957 10.892 A 6.065 6.065 0 0 1 50.773 11.28 A 5.515 5.515 0 0 1 49.152 11.053 Z"/></g></svg>